# xmcd
#
# Track frame offsets:
#	150
#	12664
#	27378
#	37880
#	59781
#	86960
#	106797
#	131751
#	147019
#	164207
#	188298
#
# Disc length: 2783 seconds
#
# Revision: 0
# Processed by: cddbd v1.4PL0 Copyright (c) Steve Scherf et al.
# Submitted via: dBpowerAMP V4.0
#
DISCID=990add0b
DTITLE=Luke Geraty - The Before I Sold Out EP
DYEAR=2002
DGENRE=Hip-Hop
TTITLE0=intro
TTITLE1=drowing in my dreams
TTITLE2=million miles
TTITLE3=listen up
TTITLE4=traveling remix
TTITLE5=crayons
TTITLE6=success
TTITLE7=condescnding comprehension
TTITLE8=i'll be good to you
TTITLE9=a day in the life of...
TTITLE10=outro
EXTD=Luke Geraty -- The Before I Sold Out EP
EXTT0=
EXTT1=
EXTT2=
EXTT3=
EXTT4=
EXTT5=
EXTT6=
EXTT7=
EXTT8=
EXTT9=
EXTT10=
PLAYORDER=
